<svg version="1" xmlns="http://www.w3.org/2000/svg" width="933.333" height="933.333" viewBox="0 0 700.000000 700.000000"><path d="M328.5.6c-30.5 3-42.1 4.8-63.1 9.9-47.6 11.7-94.4 34.8-133.9 66.1-14.1 11.3-43.6 40.8-54.9 54.9-40.9 51.6-65.6 110.8-74.2 178-2.5 19.6-2.5 61.4 0 81 8.6 67.2 33.3 126.4 74.2 178 11.3 14.1 40.8 43.6 54.9 54.9 51.6 40.9 110.8 65.6 178 74.2 19.6 2.5 61.4 2.5 81 0 67.2-8.6 126.4-33.3 178-74.2 14.1-11.3 43.6-40.8 54.9-54.9 40.9-51.6 65.6-110.8 74.2-178 2.5-19.6 2.5-61.4 0-81-8.6-67.2-33.3-126.4-74.2-178-11.3-14.1-40.8-43.6-54.9-54.9C517 35.8 457.6 10.9 391 2.5 379.3 1 337.4-.3 328.5.6zM162.1 243.5c24.1 1.8 45.9 14.9 55.9 33.7 3.4 6.4 7 19.2 7 25v3.8h-41.7l-.7-4.6c-2.2-16-14.7-25.4-33.9-25.4-17.6.1-30.4 8.7-31.5 21.4-1.2 14.4 6.4 20.4 41.3 32.6 35 12.1 51.3 22.8 60.2 39.7 10.4 19.4 7.7 45.6-6.2 61.1-17.2 19.2-55.3 27-89.4 18.5-22.1-5.5-40.6-19.1-48.6-35.7-3.3-6.9-6.4-18.9-6.5-25.4V386l21.2.2 21.3.3.7 5.7c1.4 11.5 7.8 19.7 18.8 24 4.8 2 7.4 2.2 20 2.3 12.8 0 15-.3 19-2.1 10.8-5.2 15.4-14.3 13-25.8-2.3-11.3-9.8-16.2-41.9-27.6-19.7-7-32.5-13-41.7-19.5-17.3-12.4-25.8-30.7-23.4-50.3 2.9-22.7 18.9-39 45.7-46.7 8.6-2.5 24.8-4.5 30.8-3.9 1.7.2 6.4.6 10.6.9zm120.2 2.2c.3.5 6.4 32.1 13.6 70.3 7.3 38.2 13.5 70.3 13.9 71.3.5 1.2 6.7-23.9 17-68.5 9-38.6 16.5-71.1 16.8-72.1.5-1.5 2.2-1.7 18.3-1.7h17.8l16.2 70.7c8.9 39 16.5 71.6 16.9 72.6.4 1 6.5-28.9 14.1-69.5 7.4-39.2 13.6-71.9 13.9-72.6.3-.9 5.5-1.2 21.4-1.2 16.4 0 20.9.3 20.6 1.2-.3.7-10.5 46.9-22.9 102.5L437.5 450h-42.4l-1-3.8c-.5-2-7.8-31.8-16.1-66.2-8.3-34.4-15.4-63.3-15.8-64.3-.5-1.1-6.9 23.9-17.2 66.2L328.5 450h-21.2c-19.3 0-21.2-.2-21.7-1.8-1.1-3.4-44.6-200.5-44.6-201.8 0-1.1 3.7-1.4 20.4-1.4 11.3 0 20.7.3 20.9.7zM548 330.5V416h90v34H506V245h42v85.5z"/></svg>